<?xml version="1.0" encoding="UTF-8"?>
<svg width="81px" height="100px" viewBox="0 0 81 100" version="1.1" xmlns="http://www.w3.org/2000/svg" xmlns:xlink="http://www.w3.org/1999/xlink">
    <!-- Generator: Sketch 43.1 (39012) - http://www.bohemiancoding.com/sketch -->
    <title>apple-seeklogo.com</title>
    <desc>Created with Sketch.</desc>
    <defs></defs>
    <g id="Page-1" stroke="none" stroke-width="1" fill="none" fill-rule="evenodd">
        <g id="apple-seeklogo.com" fill-rule="nonzero" fill="#777777">
            <path d="M67.6487301,53.0256962 C67.7885203,68.1300463 80.8552384,73.1563933 81,73.2205483 C80.8895147,73.575034 78.9121563,80.3835851 74.1158321,87.4163321 C69.9696209,93.4964981 65.6664004,99.5543914 58.8875566,99.6798556 C52.2266646,99.8029975 50.0848161,95.7167708 42.4695308,95.7167708 C34.8565459,95.7167708 32.4768548,99.5543813 26.1715786,99.8029975 C19.6282746,100.051432 14.6456173,93.2281032 10.4649494,87.1702102 C1.92226073,74.7785854 -4.60612097,52.1543898 4.15984549,36.8826889 C8.51459062,29.2987001 16.2968493,24.4962018 24.7437954,24.3730507 C31.1691526,24.250078 37.2339262,28.7102175 41.1618285,28.7102175 C45.0872404,28.7102175 52.4572311,23.3465089 60.2050304,24.1342373 C63.4485239,24.2696843 72.5530634,25.4487898 78.3993384,34.0347267 C77.9282728,34.3277248 67.5357592,40.3979063 67.6487301,53.0257105 M55.1303535,15.9360963 C58.6042375,11.7170895 60.9423617,5.84384187 60.3044962,0 C55.2971534,0.201920706 49.2421509,3.34787013 45.6504954,7.56455575 C42.4316823,11.2986272 39.6127257,17.2752468 40.373329,23.0034264 C45.9546004,23.4366804 51.6562986,20.1577861 55.1303535,15.9361031" id="Shape"></path>
        </g>
    </g>
</svg>