<?xml version="1.0" encoding="UTF-8"?>
<svg width="573px" height="573px" viewBox="0 0 573 573" version="1.1" xmlns="http://www.w3.org/2000/svg" xmlns:xlink="http://www.w3.org/1999/xlink">
    <!-- Generator: Sketch 43.1 (39012) - http://www.bohemiancoding.com/sketch -->
    <title>Artboard 5 Copy</title>
    <desc>Created with Sketch.</desc>
    <defs></defs>
    <g id="Page-1" stroke="none" stroke-width="1" fill="none" fill-rule="evenodd" opacity="0.100033967">
        <g id="Artboard-5-Copy">
            <path d="M310.579698,195.261741 C310.127033,194.198982 310.615103,193.704812 311.702238,194.140799 C311.702238,194.140799 314.433155,195.446486 316.62286,195.446486 C318.812565,195.446486 321.543482,194.140799 321.543482,194.140799 C322.616108,193.697119 323.145669,194.207594 322.742357,195.296638 C322.742357,195.296638 321.426809,198.40774 321.426809,200.327284 C321.426809,202.246828 322.713152,205.113681 322.713152,205.113681 C323.139787,206.186684 322.613667,206.711563 321.518328,206.303601 C321.518328,206.303601 318.626947,205.049842 316.62286,205.049842 C314.618773,205.049842 311.711546,206.30931 311.711546,206.30931 C310.633779,206.721985 310.147327,206.209967 310.597483,205.128007 C310.597483,205.128007 311.818911,202.850975 311.818911,200.248164 C311.818911,197.645352 310.579698,195.261741 310.579698,195.261741 Z" id="Rectangle-3" fill="#BCB8FF" transform="translate(316.632097, 200.203365) rotate(45.000000) translate(-316.632097, -200.203365) "></path>
            <path d="M399.369885,74.7215112 C398.91929,73.658425 399.419669,73.1677565 400.498287,73.5977896 C400.498287,73.5977896 402.981137,74.7946621 405.055594,74.7946621 C407.130052,74.7946621 409.612902,73.5977896 409.612902,73.5977896 C410.686697,73.1553177 411.217432,73.6674003 410.814224,74.760955 C410.814224,74.760955 409.606704,77.6000611 409.606704,79.4185765 C409.606704,81.2370919 410.7863,83.8485057 410.7863,83.8485057 C411.212045,84.9227772 410.674107,85.4449612 409.587337,85.0422939 C409.587337,85.0422939 406.954203,83.8925782 405.055594,83.8925782 C403.156986,83.8925782 400.508596,85.0477502 400.508596,85.0477502 C399.429108,85.4596973 398.94403,84.9386003 399.386844,83.8659702 C399.386844,83.8659702 400.504485,81.8094415 400.504485,79.3436202 C400.504485,76.8777989 399.369885,74.7215112 399.369885,74.7215112 Z" id="Rectangle-3" fill="#BCB8FF" transform="translate(405.064345, 79.301180) rotate(45.000000) translate(-405.064345, -79.301180) "></path>
            <path d="M34.9912945,321.702372 C34.5353803,320.636373 35.0295262,320.143796 36.096212,320.573697 C36.096212,320.573697 39.0848192,321.992253 41.3897718,321.992253 C43.6947243,321.992253 46.6833315,320.573697 46.6833315,320.573697 C47.7494749,320.131048 48.2703563,320.650215 47.8679293,321.73304 C47.8679293,321.73304 46.4465599,325.109363 46.4465599,327.129936 C46.4465599,329.150509 47.837469,332.266317 47.837469,332.266317 C48.2661998,333.341632 47.733063,333.864544 46.6588025,333.462682 C46.6588025,333.462682 43.4993371,332.101049 41.3897718,332.101049 C39.2802064,332.101049 36.120741,333.462682 36.120741,333.462682 C35.0410507,333.877263 34.5582514,333.356848 35.0036828,332.293207 C35.0036828,332.293207 36.3329836,329.786453 36.3329836,327.046651 C36.3329836,324.30685 34.9912945,321.702372 34.9912945,321.702372 Z" id="Rectangle-3" fill="#BCB8FF" transform="translate(41.399495, 326.999495) rotate(45.000000) translate(-41.399495, -326.999495) "></path>
            <path d="M175.552121,195.562897 C175.099457,194.500137 175.587526,194.005967 176.674661,194.441954 C176.674661,194.441954 179.405578,195.747641 181.595283,195.747641 C183.784988,195.747641 186.515905,194.441954 186.515905,194.441954 C187.588532,193.998274 188.118092,194.508749 187.71478,195.597793 C187.71478,195.597793 186.399232,198.708895 186.399232,200.628439 C186.399232,202.547983 187.685575,205.414836 187.685575,205.414836 C188.112211,206.487839 187.58609,207.012719 186.490751,206.604756 C186.490751,206.604756 183.59937,205.350997 181.595283,205.350997 C179.591196,205.350997 176.683969,206.610465 176.683969,206.610465 C175.606202,207.02314 175.11975,206.511122 175.569906,205.429162 C175.569906,205.429162 176.791334,203.15213 176.791334,200.549319 C176.791334,197.946507 175.552121,195.562897 175.552121,195.562897 Z" id="Rectangle-3" fill="#BCB8FF" transform="translate(181.604520, 200.504520) rotate(45.000000) translate(-181.604520, -200.504520) "></path>
            <path d="M534.793036,522.381898 C534.428304,521.529099 534.823621,521.135037 535.67697,521.478957 C535.67697,521.478957 538.067855,522.613803 539.911817,522.613803 C541.755779,522.613803 544.146665,521.478957 544.146665,521.478957 C544.99958,521.124838 545.420104,521.53017 545.094343,522.406432 C545.094343,522.406432 543.957248,525.107491 543.957248,526.723949 C543.957248,528.340407 545.074865,530.846017 545.074865,530.846017 C545.415149,531.699109 544.98645,532.111635 544.127042,531.790146 C544.127042,531.790146 541.59947,530.700839 539.911817,530.700839 C538.224165,530.700839 535.6704,531.799654 535.6704,531.799654 C534.821114,532.126067 534.442592,531.714608 534.802946,530.854565 C534.802946,530.854565 535.866387,528.849162 535.866387,526.657321 C535.866387,524.46548 534.793036,522.381898 534.793036,522.381898 Z" id="Rectangle-3-Copy" fill="#F8443E" transform="translate(539.919596, 526.619596) rotate(45.000000) translate(-539.919596, -526.619596) "></path>
            <path d="M227.493036,313.081898 C227.128304,312.229099 227.523621,311.835037 228.37697,312.178957 C228.37697,312.178957 230.767855,313.313803 232.611817,313.313803 C234.455779,313.313803 236.846665,312.178957 236.846665,312.178957 C237.69958,311.824838 238.120104,312.23017 237.794343,313.106432 C237.794343,313.106432 236.657248,315.807491 236.657248,317.423949 C236.657248,319.040407 237.774865,321.546017 237.774865,321.546017 C238.115149,322.399109 237.68645,322.811635 236.827042,322.490146 C236.827042,322.490146 234.29947,321.400839 232.611817,321.400839 C230.924165,321.400839 228.3704,322.499654 228.3704,322.499654 C227.521114,322.826067 227.142592,322.414608 227.502946,321.554565 C227.502946,321.554565 228.566387,319.549162 228.566387,317.357321 C228.566387,315.16548 227.493036,313.081898 227.493036,313.081898 Z" id="Rectangle-3-Copy-6" fill="#F8443E" transform="translate(232.619596, 317.319596) rotate(45.000000) translate(-232.619596, -317.319596) "></path>
            <path d="M520.469461,408.178621 C520.126476,407.380963 520.492123,407.011839 521.303272,407.340577 C521.303272,407.340577 523.783657,408.510368 525.627619,408.510368 C527.471581,408.510368 529.964609,407.335618 529.964609,407.335618 C530.761112,407.003538 531.150983,407.387308 530.84869,408.196738 C530.84869,408.196738 529.673049,411.004056 529.673049,412.620514 C529.673049,414.236972 530.829489,416.845075 530.829489,416.845075 C531.148332,417.641562 530.760236,418.030593 529.933911,417.71985 C529.933911,417.71985 527.315271,416.597405 525.627619,416.597405 C523.939966,416.597405 521.295626,417.729243 521.295626,417.729243 C520.496363,418.037418 520.14254,417.64718 520.484174,416.837386 C520.484174,416.837386 521.582188,414.745728 521.582188,412.553886 C521.582188,410.362045 520.469461,408.178621 520.469461,408.178621 Z" id="Rectangle-3-Copy-2" fill="#D53592" transform="translate(525.635397, 412.516161) rotate(45.000000) translate(-525.635397, -412.516161) "></path>
            <path d="M270.357756,484.991156 C270.016976,484.18941 270.387909,483.817296 271.194835,484.140295 C271.194835,484.140295 273.184041,485.093496 274.797508,485.093496 C276.410975,485.093496 278.400181,484.140295 278.400181,484.140295 C279.203266,483.808466 279.596951,484.198585 279.298022,485.006997 C279.298022,485.006997 278.337259,487.275473 278.337259,488.689874 C278.337259,490.104275 279.280769,492.205155 279.280769,492.205155 C279.597519,493.002161 279.203016,493.390708 278.381259,493.085045 C278.381259,493.085045 276.274203,492.169653 274.797508,492.169653 C273.320812,492.169653 271.202025,493.089263 271.202025,493.089263 C270.394968,493.39799 270.033219,493.00811 270.366515,492.205017 C270.366515,492.205017 271.257756,490.549436 271.257756,488.631575 C271.257756,486.713714 270.357756,484.991156 270.357756,484.991156 Z" id="Rectangle-3-Copy-2" fill="#D53592" transform="translate(274.804314, 488.598565) rotate(45.000000) translate(-274.804314, -488.598565) "></path>
            <path d="M126.7359,547.295994 C126.39512,546.494248 126.766053,546.122134 127.572978,546.445133 C127.572978,546.445133 129.562185,547.398334 131.175651,547.398334 C132.789118,547.398334 134.778325,546.445133 134.778325,546.445133 C135.58141,546.113304 135.975095,546.503423 135.676165,547.311835 C135.676165,547.311835 134.715403,549.580311 134.715403,550.994712 C134.715403,552.409113 135.658913,554.509993 135.658913,554.509993 C135.975663,555.306999 135.581159,555.695546 134.759403,555.389883 C134.759403,555.389883 132.652347,554.474491 131.175651,554.474491 C129.698956,554.474491 127.580168,555.394101 127.580168,555.394101 C126.773112,555.702828 126.411363,555.312948 126.744659,554.509855 C126.744659,554.509855 127.6359,552.854274 127.6359,550.936413 C127.6359,549.018552 126.7359,547.295994 126.7359,547.295994 Z" id="Rectangle-3-Copy-2" fill="#D53592" transform="translate(131.182458, 550.903403) rotate(45.000000) translate(-131.182458, -550.903403) "></path>
            <path d="M88.0144567,46.0717107 C87.6714721,45.2740526 88.0371188,44.9049283 88.8482682,45.2336658 C88.8482682,45.2336658 91.3286525,46.4034574 93.1726145,46.4034574 C95.0165766,46.4034574 97.5096048,45.2287071 97.5096048,45.2287071 C98.3061078,44.896627 98.6959793,45.2803977 98.3936863,46.089827 C98.3936863,46.089827 97.218045,48.8971453 97.218045,50.5136034 C97.218045,52.1300616 98.3744853,54.738164 98.3744853,54.738164 C98.693328,55.5346515 98.3052323,55.9236821 97.4789066,55.6129396 C97.4789066,55.6129396 94.8602668,54.4904939 93.1726145,54.4904939 C91.4849622,54.4904939 88.8406216,55.6223327 88.8406216,55.6223327 C88.0413587,55.9305073 87.6875361,55.5402695 88.02917,54.7304757 C88.02917,54.7304757 89.127184,52.6388168 89.127184,50.4469756 C89.127184,48.2551345 88.0144567,46.0717107 88.0144567,46.0717107 Z" id="Rectangle-3-Copy-2" fill="#D53592" transform="translate(93.180393, 50.409251) rotate(45.000000) translate(-93.180393, -50.409251) "></path>
            <path d="M424.615086,321.429877 C424.16449,320.366791 424.66487,319.876122 425.743487,320.306155 C425.743487,320.306155 428.226337,321.503028 430.300795,321.503028 C432.375252,321.503028 434.858102,320.306155 434.858102,320.306155 C435.931897,319.863684 436.462632,320.375766 436.059424,321.469321 C436.059424,321.469321 434.851904,324.308427 434.851904,326.126942 C434.851904,327.945458 436.0315,330.556872 436.0315,330.556872 C436.457245,331.631143 435.919307,332.153327 434.832538,331.75066 C434.832538,331.75066 432.199403,330.600944 430.300795,330.600944 C428.402186,330.600944 425.753796,331.756116 425.753796,331.756116 C424.674308,332.168063 424.18923,331.646966 424.632045,330.574336 C424.632045,330.574336 425.749685,328.517807 425.749685,326.051986 C425.749685,323.586165 424.615086,321.429877 424.615086,321.429877 Z" id="Rectangle-3-Copy-3" fill="#FBBB45" transform="translate(430.309545, 326.009545) rotate(45.000000) translate(-430.309545, -326.009545) "></path>
            <path d="M442.098095,101.200326 C441.650171,100.130452 442.148805,99.6311439 443.232702,100.057662 C443.232702,100.057662 445.22228,101.039183 447.066242,101.039183 C448.910204,101.039183 450.899782,100.057662 450.899782,100.057662 C451.974333,99.6188642 452.502894,100.144189 452.11016,101.220429 C452.11016,101.220429 451.111673,103.532871 451.111673,105.149329 C451.111673,106.765787 452.084978,108.88325 452.084978,108.88325 C452.504963,109.95071 451.976683,110.474094 450.873636,110.069951 C450.873636,110.069951 448.753895,109.126219 447.066242,109.126219 C445.37859,109.126219 443.230869,110.079786 443.230869,110.079786 C442.157331,110.486418 441.671832,109.968083 442.113312,108.879188 C442.113312,108.879188 443.020812,107.274542 443.020812,105.082701 C443.020812,102.89086 442.098095,101.200326 442.098095,101.200326 Z" id="Rectangle-3-Copy-3" fill="#FBBB45" transform="translate(447.074021, 105.044976) rotate(45.000000) translate(-447.074021, -105.044976) "></path>
            <path d="M235.34367,89.4749455 C234.895746,88.4050721 235.39438,87.9057638 236.478277,88.3322818 C236.478277,88.3322818 238.467855,89.3138027 240.311817,89.3138027 C242.155779,89.3138027 244.145358,88.3322818 244.145358,88.3322818 C245.219908,87.8934841 245.748469,88.4188092 245.355735,89.4950489 C245.355735,89.4950489 244.357248,91.8074907 244.357248,93.4239488 C244.357248,95.0404069 245.330553,97.1578702 245.330553,97.1578702 C245.750539,98.2253302 245.222259,98.7487136 244.119212,98.344571 C244.119212,98.344571 241.99947,97.4008393 240.311817,97.4008393 C238.624165,97.4008393 236.476444,98.3544057 236.476444,98.3544057 C235.402906,98.7610374 234.917408,98.2427032 235.358887,97.1538083 C235.358887,97.1538083 236.266387,95.5491622 236.266387,93.357321 C236.266387,91.1654798 235.34367,89.4749455 235.34367,89.4749455 Z" id="Rectangle-3-Copy-3" fill="#FBBB45" transform="translate(240.319596, 93.319596) rotate(45.000000) translate(-240.319596, -93.319596) "></path>
            <path d="M168.84367,424.774946 C168.395746,423.705072 168.89438,423.205764 169.978277,423.632282 C169.978277,423.632282 171.967855,424.613803 173.811817,424.613803 C175.655779,424.613803 177.645358,423.632282 177.645358,423.632282 C178.719908,423.193484 179.248469,423.718809 178.855735,424.795049 C178.855735,424.795049 177.857248,427.107491 177.857248,428.723949 C177.857248,430.340407 178.830553,432.45787 178.830553,432.45787 C179.250539,433.52533 178.722259,434.048714 177.619212,433.644571 C177.619212,433.644571 175.49947,432.700839 173.811817,432.700839 C172.124165,432.700839 169.976444,433.654406 169.976444,433.654406 C168.902906,434.061037 168.417408,433.542703 168.858887,432.453808 C168.858887,432.453808 169.766387,430.849162 169.766387,428.657321 C169.766387,426.46548 168.84367,424.774946 168.84367,424.774946 Z" id="Rectangle-3-Copy-8" fill="#FBBB45" transform="translate(173.819596, 428.619596) rotate(45.000000) translate(-173.819596, -428.619596) "></path>
            <path d="M354.49464,533.023992 C354.231647,532.392518 354.539049,532.102322 355.191242,532.35671 C355.191242,532.35671 356.232013,532.879627 357.269241,532.879627 C358.30647,532.879627 359.363024,532.350864 359.363024,532.350864 C360.002023,532.091148 360.313211,532.413741 360.07807,533.062684 C360.07807,533.062684 359.544796,534.282326 359.544796,535.191584 C359.544796,536.100842 360.066676,537.221606 360.066676,537.221606 C360.317058,537.860883 359.994813,538.172867 359.347396,537.937245 C359.347396,537.937245 358.218546,537.428585 357.269241,537.428585 C356.319937,537.428585 355.191087,537.937245 355.191087,537.937245 C354.543457,538.181285 354.254527,537.856368 354.511782,537.213641 C354.511782,537.213641 354.993687,536.387016 354.993687,535.154106 C354.993687,533.921195 354.49464,533.023992 354.49464,533.023992 Z" id="Rectangle-3-Copy-4" fill="#F88330" transform="translate(357.273617, 535.132885) rotate(45.000000) translate(-357.273617, -535.132885) "></path>
            <path d="M53.4522023,159.416297 C53.1757213,158.773728 53.4745879,158.478296 54.1233736,158.741366 C54.1233736,158.741366 56.148959,159.695851 57.6471782,159.695851 C59.1453973,159.695851 61.2016252,158.729324 61.2016252,158.729324 C61.8318605,158.46616 62.134912,158.783365 61.89318,159.430369 C61.89318,159.430369 60.9340904,161.721973 60.9340904,163.035345 C60.9340904,164.348717 61.8815137,166.488337 61.8815137,166.488337 C62.1362569,167.124141 61.8174301,167.431034 61.1669224,167.186187 C61.1669224,167.186187 59.0183956,166.266568 57.6471782,166.266568 C56.2759607,166.266568 54.1170372,167.189992 54.1170372,167.189992 C53.473378,167.438283 53.1842035,167.133887 53.4601538,166.481323 C53.4601538,166.481323 54.3602659,164.762081 54.3602659,162.98121 C54.3602659,161.200339 53.4522023,159.416297 53.4522023,159.416297 Z" id="Rectangle-3-Copy-4" fill="#F88330" transform="translate(57.653498, 162.950558) rotate(45.000000) translate(-57.653498, -162.950558) "></path>
            <path d="M331.147451,394.536507 C330.924888,394.005308 331.185869,393.763012 331.717289,393.971943 C331.717289,393.971943 332.712078,394.462703 333.634059,394.462703 C334.55604,394.462703 335.564609,393.966768 335.564609,393.966768 C336.094274,393.750227 336.356509,394.00429 336.156018,394.553327 C336.156018,394.553327 335.656774,395.709547 335.656774,396.517776 C335.656774,397.326006 336.140903,398.37784 336.140903,398.37784 C336.352289,398.915379 336.089279,399.180159 335.537756,398.978088 C335.537756,398.978088 334.477885,398.506222 333.634059,398.506222 C332.790233,398.506222 331.716372,398.983005 331.716372,398.983005 C331.179603,399.186321 330.936854,398.927154 331.157594,398.382706 C331.157594,398.382706 331.611343,397.580383 331.611343,396.484463 C331.611343,395.388542 331.147451,394.536507 331.147451,394.536507 Z" id="Rectangle-3-Copy-5" fill="#244DFF" transform="translate(333.637948, 396.465600) rotate(45.000000) translate(-333.637948, -396.465600) "></path>
            <path d="M118.769726,365.003906 C118.546856,364.487967 118.79598,364.255163 119.340383,364.476299 C119.340383,364.476299 121.071651,365.290739 122.339374,365.290739 C123.607098,365.290739 125.355576,364.469525 125.355576,364.469525 C125.884106,364.248716 126.141787,364.505327 125.935422,365.05711 C125.935422,365.05711 125.120608,367.00515 125.120608,368.116465 C125.120608,369.22778 125.928861,371.055506 125.928861,371.055506 C126.140775,371.583951 125.881026,371.840919 125.326417,371.631936 C125.326417,371.631936 123.499635,370.850577 122.339374,370.850577 C121.179114,370.850577 119.334814,371.638357 119.334814,371.638357 C118.799854,371.844902 118.563011,371.584462 118.789779,371.048923 C118.789779,371.048923 119.558141,369.577549 119.558141,368.070658 C119.558141,366.563767 118.769726,365.003906 118.769726,365.003906 Z" id="Rectangle-3-Copy-5" fill="#244DFF" transform="translate(122.344722, 368.044722) rotate(45.000000) translate(-122.344722, -368.044722) "></path>
            <path d="M507.356585,196.169899 C506.952387,195.208723 507.393686,194.758493 508.371549,195.145323 C508.371549,195.145323 510.313993,196.094569 512.042708,196.094569 C513.771422,196.094569 515.713867,195.145323 515.713867,195.145323 C516.678613,194.750005 517.15497,195.214774 516.794894,196.197814 C516.794894,196.197814 515.835299,198.432401 515.835299,199.947831 C515.835299,201.46326 516.776091,203.525478 516.776091,203.525478 C517.154188,204.483643 516.666175,204.947397 515.690539,204.588536 C515.690539,204.588536 513.624882,203.676166 512.042708,203.676166 C510.460534,203.676166 508.368942,204.597715 508.368942,204.597715 C507.405635,204.9637 506.977407,204.484046 507.370818,203.519368 C507.370818,203.519368 508.250117,201.940218 508.250117,199.885367 C508.250117,197.830516 507.356585,196.169899 507.356585,196.169899 Z" id="Rectangle-3-Copy-7" fill="#244DFF" transform="translate(512.050000, 199.850000) rotate(45.000000) translate(-512.050000, -199.850000) "></path>
        </g>
    </g>
</svg>