<?xml version="1.0" encoding="UTF-8"?>
<svg width="817px" height="817px" viewBox="0 0 817 817" version="1.1" xmlns="http://www.w3.org/2000/svg" xmlns:xlink="http://www.w3.org/1999/xlink">
    <!-- Generator: Sketch 43.1 (39012) - http://www.bohemiancoding.com/sketch -->
    <title>Artboard 5</title>
    <desc>Created with Sketch.</desc>
    <defs></defs>
    <g id="Page-1" stroke="none" stroke-width="1" fill="none" fill-rule="evenodd" opacity="0.296535326">
        <g id="Artboard-5">
            <path d="M443.685283,278.945345 C443.038619,277.427117 443.75246,276.728063 445.288911,277.343999 C445.288911,277.343999 449.190221,279.209265 452.318371,279.209265 C455.446521,279.209265 459.347831,277.343999 459.347831,277.343999 C460.880155,276.71017 461.63667,277.439421 461.06051,278.995197 C461.06051,278.995197 459.181155,283.439629 459.181155,286.181835 C459.181155,288.92404 461.018789,293.019544 461.018789,293.019544 C461.628268,294.552406 460.876667,295.302234 459.311897,294.71943 C459.311897,294.71943 455.181353,292.928345 452.318371,292.928345 C449.45539,292.928345 445.302208,294.727586 445.302208,294.727586 C443.762541,295.317122 443.074533,294.569838 443.71069,293.040009 C443.71069,293.040009 445.455587,289.787107 445.455587,286.068805 C445.455587,282.350503 443.685283,278.945345 443.685283,278.945345 Z" id="Rectangle-3" fill="#6B63F6" transform="translate(452.331567, 286.004807) rotate(45.000000) translate(-452.331567, -286.004807) "></path>
            <path d="M570.528408,106.745016 C569.8847,105.226321 570.599528,104.525366 572.14041,105.139699 C572.14041,105.139699 575.687339,106.849517 578.650849,106.849517 C581.61436,106.849517 585.172016,105.135593 585.172016,105.135593 C586.700084,104.505758 587.453475,105.239143 586.877463,106.801364 C586.877463,106.801364 585.152434,110.85723 585.152434,113.455109 C585.152434,116.052988 586.837571,119.78358 586.837571,119.78358 C587.445778,121.318253 586.69375,122.070539 585.135671,121.49289 C585.135671,121.49289 581.363148,119.84654 578.650849,119.84654 C575.938551,119.84654 572.155137,121.496786 572.155137,121.496786 C570.613011,122.085282 569.920042,121.340858 570.552635,119.808529 C570.552635,119.808529 572.149264,116.870631 572.149264,113.348029 C572.149264,109.825427 570.528408,106.745016 570.528408,106.745016 Z" id="Rectangle-3" fill="#6B63F6" transform="translate(578.663350, 113.287399) rotate(45.000000) translate(-578.663350, -113.287399) "></path>
            <path d="M49.9875636,459.574817 C49.3362575,458.051962 50.0421803,457.348279 51.5775487,457.966908 C51.5775487,457.966908 55.835456,459.988933 59.1282454,459.988933 C62.4210348,459.988933 66.6904736,457.962424 66.6904736,457.962424 C68.2135355,457.330069 68.9576519,458.071736 68.3827561,459.618629 C68.3827561,459.618629 66.3522284,464.441948 66.3522284,467.32848 C66.3522284,470.215012 68.3392415,474.666168 68.3392415,474.666168 C68.951714,476.202332 68.2075974,476.956098 66.6554322,476.37526 C66.6554322,476.37526 62.1419102,474.43007 59.1282454,474.43007 C56.1145805,474.43007 51.6010586,476.37526 51.6010586,476.37526 C50.0586438,476.967518 49.3689305,476.224069 50.0052612,474.704581 C50.0052612,474.704581 51.9042623,471.123504 51.9042623,467.209502 C51.9042623,463.2955 49.9875636,459.574817 49.9875636,459.574817 Z" id="Rectangle-3" fill="#6B63F6" transform="translate(59.142136, 467.142136) rotate(45.000000) translate(-59.142136, -467.142136) "></path>
            <path d="M250.788745,279.375566 C250.142081,277.857338 250.855922,277.158285 252.392373,277.77422 C252.392373,277.77422 256.293683,279.639487 259.421833,279.639487 C262.549983,279.639487 266.451293,277.77422 266.451293,277.77422 C267.983616,277.140391 268.740132,277.869642 268.163972,279.425418 C268.163972,279.425418 266.284617,283.86985 266.284617,286.612056 C266.284617,289.354262 268.12225,293.449766 268.12225,293.449766 C268.73173,294.982627 267.980129,295.732455 266.415359,295.149651 C266.415359,295.149651 262.284815,293.358567 259.421833,293.358567 C256.558852,293.358567 252.40567,295.157807 252.40567,295.157807 C250.866003,295.747343 250.177995,295.000059 250.814152,293.470231 C250.814152,293.470231 252.559049,290.217329 252.559049,286.499027 C252.559049,282.780725 250.788745,279.375566 250.788745,279.375566 Z" id="Rectangle-3" fill="#6B63F6" transform="translate(259.435029, 286.435029) rotate(45.000000) translate(-259.435029, -286.435029) "></path>
            <path d="M763.990051,746.259854 C763.469006,745.041569 764.033744,744.478624 765.271276,744.977116 C765.271276,744.977116 768.668365,746.591147 771.302596,746.591147 C773.936828,746.591147 777.352379,744.969939 777.352379,744.969939 C778.570828,744.464055 779.166122,745.057389 778.706205,746.294903 C778.706205,746.294903 777.081783,750.153558 777.081783,752.462784 C777.081783,754.77201 778.671393,758.332934 778.671393,758.332934 C779.161371,759.561865 778.552072,760.159479 777.324346,759.700208 C777.324346,759.700208 773.713528,758.144056 771.302596,758.144056 C768.891664,758.144056 765.280847,759.700208 765.280847,759.700208 C764.046915,760.174015 763.495144,759.579255 764.004209,758.363665 C764.004209,758.363665 765.52341,755.498803 765.52341,752.367601 C765.52341,749.2364 763.990051,746.259854 763.990051,746.259854 Z" id="Rectangle-3-Copy" fill="#F8443E" transform="translate(771.313708, 752.313708) rotate(45.000000) translate(-771.313708, -752.313708) "></path>
            <path d="M324.990051,447.259854 C324.469006,446.041569 325.033744,445.478624 326.271276,445.977116 C326.271276,445.977116 329.668365,447.591147 332.302596,447.591147 C334.936828,447.591147 338.352379,445.969939 338.352379,445.969939 C339.570828,445.464055 340.166122,446.057389 339.706205,447.294903 C339.706205,447.294903 338.081783,451.153558 338.081783,453.462784 C338.081783,455.77201 339.671393,459.332934 339.671393,459.332934 C340.161371,460.561865 339.552072,461.159479 338.324346,460.700208 C338.324346,460.700208 334.713528,459.144056 332.302596,459.144056 C329.891664,459.144056 326.280847,460.700208 326.280847,460.700208 C325.046915,461.174015 324.495144,460.579255 325.004209,459.363665 C325.004209,459.363665 326.52341,456.498803 326.52341,453.367601 C326.52341,450.2364 324.990051,447.259854 324.990051,447.259854 Z" id="Rectangle-3-Copy-6" fill="#F8443E" transform="translate(332.313708, 453.313708) rotate(45.000000) translate(-332.313708, -453.313708) "></path>
            <path d="M743.527801,583.112316 C743.037823,581.972805 743.560176,581.445484 744.71896,581.915109 C744.71896,581.915109 748.262367,583.58624 750.896598,583.58624 C753.53083,583.58624 757.074236,581.915109 757.074236,581.915109 C758.222073,581.436797 758.787119,581.981869 758.348435,583.156988 C758.348435,583.156988 756.675784,587.148652 756.675784,589.457877 C756.675784,591.767103 758.320952,595.474834 758.320952,595.474834 C758.780247,596.622686 758.215305,597.181299 757.048444,596.742643 C757.048444,596.742643 753.30753,595.139149 750.896598,595.139149 C748.485666,595.139149 744.726369,596.749359 744.726369,596.749359 C743.57444,597.19331 743.060772,596.638829 743.541803,595.499386 C743.541803,595.499386 745.117412,592.493896 745.117412,589.362695 C745.117412,586.231493 743.527801,583.112316 743.527801,583.112316 Z" id="Rectangle-3-Copy-2" fill="#D53592" transform="translate(750.907710, 589.308802) rotate(45.000000) translate(-750.907710, -589.308802) "></path>
            <path d="M386.225366,692.844509 C385.738538,691.699157 386.268442,691.167565 387.421192,691.628993 C387.421192,691.628993 390.262916,692.990709 392.567868,692.990709 C394.872821,692.990709 397.714544,691.628993 397.714544,691.628993 C398.861809,691.154952 399.424216,691.712264 398.997174,692.867138 C398.997174,692.867138 397.624656,696.107819 397.624656,698.128392 C397.624656,700.148964 398.960155,703.117142 398.960155,703.117142 C399.419488,704.273991 398.861451,704.843868 397.687513,704.407208 C397.687513,704.407208 394.677434,703.099505 392.567868,703.099505 C390.458303,703.099505 387.448223,704.407208 387.448223,704.407208 C386.286029,704.851573 385.761742,704.2973 386.237878,703.150025 C386.237878,703.150025 387.51108,700.784908 387.51108,698.045107 C387.51108,695.305305 386.225366,692.844509 386.225366,692.844509 Z" id="Rectangle-3-Copy-2" fill="#D53592" transform="translate(392.577591, 697.997950) rotate(45.000000) translate(-392.577591, -697.997950) "></path>
            <path d="M181.051286,781.85142 C180.564457,780.706068 181.094361,780.174477 182.247112,780.635904 C182.247112,780.635904 185.088835,781.99762 187.393788,781.99762 C189.69874,781.99762 192.540464,780.635904 192.540464,780.635904 C193.687729,780.161863 194.250136,780.719175 193.823093,781.874049 C193.823093,781.874049 192.450576,785.11473 192.450576,787.135303 C192.450576,789.155876 193.786075,792.124054 193.786075,792.124054 C194.245408,793.280903 193.68737,793.85078 192.513433,793.414119 C192.513433,793.414119 189.503353,792.106416 187.393788,792.106416 C185.284222,792.106416 182.274143,793.414119 182.274143,793.414119 C181.111949,793.858485 180.587662,793.304211 181.063798,792.156936 C181.063798,792.156936 182.337,789.79182 182.337,787.052018 C182.337,784.312217 181.051286,781.85142 181.051286,781.85142 Z" id="Rectangle-3-Copy-2" fill="#D53592" transform="translate(187.403511, 787.004862) rotate(45.000000) translate(-187.403511, -787.004862) "></path>
            <path d="M125.734938,65.8167295 C125.24496,64.6772179 125.767313,64.1498975 126.926097,64.6195226 C126.926097,64.6195226 130.469504,66.2906534 133.103735,66.2906534 C135.737967,66.2906534 139.281373,64.6195226 139.281373,64.6195226 C140.42921,64.1412101 140.994256,64.6862824 140.555572,65.8614012 C140.555572,65.8614012 138.882921,69.8530648 138.882921,72.1622906 C138.882921,74.4715165 140.528089,78.1792471 140.528089,78.1792471 C140.987384,79.3270993 140.422442,79.8857119 139.255581,79.4470566 C139.255581,79.4470566 135.514667,77.8435627 133.103735,77.8435627 C130.692803,77.8435627 126.933506,79.4537722 126.933506,79.4537722 C125.781577,79.8977237 125.267909,79.3432422 125.74894,78.2037988 C125.74894,78.2037988 127.324549,75.1983097 127.324549,72.067108 C127.324549,68.9359064 125.734938,65.8167295 125.734938,65.8167295 Z" id="Rectangle-3-Copy-2" fill="#D53592" transform="translate(133.114847, 72.013215) rotate(45.000000) translate(-133.114847, -72.013215) "></path>
            <path d="M606.592979,459.185539 C605.949271,457.666844 606.664099,456.965889 608.204981,457.580222 C608.204981,457.580222 611.75191,459.29004 614.715421,459.29004 C617.678931,459.29004 621.236588,457.576116 621.236588,457.576116 C622.764655,456.946281 623.518046,457.679666 622.942034,459.241887 C622.942034,459.241887 621.217006,463.297753 621.217006,465.895632 C621.217006,468.493511 622.902143,472.224102 622.902143,472.224102 C623.51035,473.758776 622.758322,474.511062 621.200242,473.933413 C621.200242,473.933413 617.427719,472.287063 614.715421,472.287063 C612.003122,472.287063 608.219708,473.937309 608.219708,473.937309 C606.677583,474.525805 605.984614,473.78138 606.617207,472.249052 C606.617207,472.249052 608.213836,469.311153 608.213836,465.788552 C608.213836,462.26595 606.592979,459.185539 606.592979,459.185539 Z" id="Rectangle-3-Copy-3" fill="#FBBB45" transform="translate(614.727922, 465.727922) rotate(45.000000) translate(-614.727922, -465.727922) "></path>
            <path d="M631.568707,144.571894 C630.928815,143.043503 631.641149,142.330206 633.189574,142.939517 C633.189574,142.939517 636.031829,144.34169 638.66606,144.34169 C641.300292,144.34169 644.142546,142.939517 644.142546,142.939517 C645.677619,142.312663 646.432706,143.063128 645.864473,144.621048 C645.864473,144.621048 644.445247,147.904101 644.445247,150.213327 C644.445247,152.522553 645.828473,155.527795 645.828473,155.527795 C646.432434,157.063621 645.680976,157.820134 644.125198,157.249814 C644.125198,157.249814 641.076992,155.894599 638.66606,155.894599 C636.255129,155.894599 633.206923,157.249814 633.206923,157.249814 C631.662269,157.834595 630.965921,157.082965 631.590446,155.541698 C631.590446,155.541698 632.886874,153.249346 632.886874,150.118145 C632.886874,146.986943 631.568707,144.571894 631.568707,144.571894 Z" id="Rectangle-3-Copy-3" fill="#FBBB45" transform="translate(638.677173, 150.064252) rotate(45.000000) translate(-638.677173, -150.064252) "></path>
            <path d="M336.205243,127.821351 C335.565351,126.29296 336.277685,125.579663 337.82611,126.188974 C337.82611,126.188974 340.668365,127.591147 343.302596,127.591147 C345.936828,127.591147 348.779082,126.188974 348.779082,126.188974 C350.314155,125.56212 351.069242,126.312585 350.501009,127.870505 C350.501009,127.870505 349.081783,131.153558 349.081783,133.462784 C349.081783,135.77201 350.465009,138.777252 350.465009,138.777252 C351.06897,140.313078 350.317512,141.069591 348.761734,140.499271 C348.761734,140.499271 345.713528,139.144056 343.302596,139.144056 C340.891664,139.144056 337.843459,140.499271 337.843459,140.499271 C336.298805,141.084052 335.602457,140.332422 336.226982,138.791155 C336.226982,138.791155 337.52341,136.498803 337.52341,133.367601 C337.52341,130.2364 336.205243,127.821351 336.205243,127.821351 Z" id="Rectangle-3-Copy-3" fill="#FBBB45" transform="translate(343.313708, 133.313708) rotate(45.000000) translate(-343.313708, -133.313708) "></path>
            <path d="M241.205243,606.821351 C240.565351,605.29296 241.277685,604.579663 242.82611,605.188974 C242.82611,605.188974 245.668365,606.591147 248.302596,606.591147 C250.936828,606.591147 253.779082,605.188974 253.779082,605.188974 C255.314155,604.56212 256.069242,605.312585 255.501009,606.870505 C255.501009,606.870505 254.081783,610.153558 254.081783,612.462784 C254.081783,614.77201 255.465009,617.777252 255.465009,617.777252 C256.06897,619.313078 255.317512,620.069591 253.761734,619.499271 C253.761734,619.499271 250.713528,618.144056 248.302596,618.144056 C245.891664,618.144056 242.843459,619.499271 242.843459,619.499271 C241.298805,620.084052 240.602457,619.332422 241.226982,617.791155 C241.226982,617.791155 242.52341,615.498803 242.52341,612.367601 C242.52341,609.2364 241.205243,606.821351 241.205243,606.821351 Z" id="Rectangle-3-Copy-8" fill="#FBBB45" transform="translate(248.313708, 612.313708) rotate(45.000000) translate(-248.313708, -612.313708) "></path>
            <path d="M506.429077,761.484964 C506.048864,760.570643 506.484356,760.146175 507.41606,760.509586 C507.41606,760.509586 508.902875,761.25661 510.384631,761.25661 C511.866386,761.25661 513.375748,760.501234 513.375748,760.501234 C514.288604,760.130212 514.739948,760.573013 514.397242,761.518119 C514.397242,761.518119 513.635423,763.260466 513.635423,764.559406 C513.635423,765.858345 514.380965,767.459437 514.380965,767.459437 C514.738655,768.372689 514.278305,768.818382 513.353423,768.481778 C513.353423,768.481778 511.74078,767.755121 510.384631,767.755121 C509.028481,767.755121 507.415838,768.481778 507.415838,768.481778 C506.490653,768.830407 506.07081,768.382806 506.445403,767.448059 C506.445403,767.448059 507.133838,766.267166 507.133838,764.505865 C507.133838,762.744565 506.429077,761.484964 506.429077,761.484964 Z" id="Rectangle-3-Copy-4" fill="#F88330" transform="translate(510.390881, 764.475551) rotate(45.000000) translate(-510.390881, -764.475551) "></path>
            <path d="M76.3546227,227.72331 C75.9627792,226.813228 76.3922684,226.397566 77.304471,226.767635 C77.304471,226.767635 80.2127986,228.13693 82.3531116,228.13693 C84.4934247,228.13693 87.4017523,226.767635 87.4017523,226.767635 C88.3181825,226.385358 88.7641601,226.833379 88.4188285,227.757671 C88.4188285,227.757671 87.0487006,231.031389 87.0487006,232.907635 C87.0487006,234.783881 88.3909974,237.811143 88.3909974,237.811143 C88.7610826,238.735638 88.3106144,239.187191 87.3813177,238.83741 C87.3813177,238.83741 84.3119938,237.523669 82.3531116,237.523669 C80.3942295,237.523669 77.3249056,238.83741 77.3249056,238.83741 C76.3971897,239.195113 75.9819571,238.752457 76.3716483,237.830461 C76.3716483,237.830461 77.6575227,235.374401 77.6575227,232.830299 C77.6575227,230.286198 76.3546227,227.72331 76.3546227,227.72331 Z" id="Rectangle-3-Copy-4" fill="#F88330" transform="translate(82.362140, 232.786511) rotate(45.000000) translate(-82.362140, -232.786511) "></path>
            <path d="M473.067787,563.623582 C472.74984,562.864726 473.107628,562.512406 473.881841,562.817061 C473.881841,562.817061 475.302968,563.518148 476.620084,563.518148 C477.9372,563.518148 479.378013,562.809669 479.378013,562.809669 C480.134677,562.500325 480.503407,562.878867 480.222882,563.647609 C480.222882,563.647609 479.509677,565.299353 479.509677,566.453966 C479.509677,567.608579 480.208498,569.130888 480.208498,569.130888 C480.506498,569.887928 480.127542,570.25737 479.339651,569.968696 C479.339651,569.968696 477.82555,569.294602 476.620084,569.294602 C475.414618,569.294602 473.880532,569.975721 473.880532,569.975721 C473.113718,570.266173 472.766934,569.895934 473.082277,569.118152 C473.082277,569.118152 473.730491,567.971976 473.730491,566.406375 C473.730491,564.840774 473.067787,563.623582 473.067787,563.623582 Z" id="Rectangle-3-Copy-5" fill="#244DFF" transform="translate(476.625640, 566.379429) rotate(45.000000) translate(-476.625640, -566.379429) "></path>
            <path d="M169.690104,521.481899 C169.361188,520.718473 169.708543,520.364518 170.486261,520.680427 C170.486261,520.680427 172.959501,521.843913 174.770535,521.843913 C176.581569,521.843913 179.067119,520.675584 179.067119,520.675584 C179.828942,520.357473 180.202552,520.721896 179.912418,521.49735 C179.912418,521.49735 178.743726,524.293071 178.743726,525.880664 C178.743726,527.468257 179.898373,530.079294 179.898373,530.079294 C180.201107,530.834216 179.830037,531.201312 179.05027,530.907356 C179.05027,530.907356 176.428051,529.786539 174.770535,529.786539 C173.113019,529.786539 170.478305,530.911938 170.478305,530.911938 C169.714077,531.207003 169.37573,530.834946 169.699685,530.069889 C169.699685,530.069889 170.797344,527.967927 170.797344,525.815226 C170.797344,523.662525 169.690104,521.481899 169.690104,521.481899 Z" id="Rectangle-3-Copy-5" fill="#244DFF" transform="translate(174.778175, 525.778175) rotate(45.000000) translate(-174.778175, -525.778175) "></path>
            <path d="M724.795122,280.242713 C724.217696,278.869605 724.861923,278.232113 726.245069,278.779033 C726.245069,278.779033 729.01999,280.135098 731.489582,280.135098 C733.959174,280.135098 736.734095,278.779033 736.734095,278.779033 C738.112305,278.214293 738.792815,278.878248 738.27842,280.282592 C738.27842,280.282592 736.90757,283.474859 736.90757,285.639758 C736.90757,287.804658 738.238094,290.714108 738.238094,290.714108 C738.785668,292.103115 738.108669,292.787391 736.70077,292.269337 C736.70077,292.269337 733.749831,290.965951 731.489582,290.965951 C729.229334,290.965951 726.278395,292.269337 726.278395,292.269337 C724.88178,292.799414 724.253439,292.120066 724.815455,290.741955 C724.815455,290.741955 726.071595,288.486026 726.071595,285.550525 C726.071595,282.615023 724.795122,280.242713 724.795122,280.242713 Z" id="Rectangle-3-Copy-7" fill="#244DFF" transform="translate(731.500000, 285.500000) rotate(45.000000) translate(-731.500000, -285.500000) "></path>
        </g>
    </g>
</svg>